HIERARCHY
ROOT Bip001
{
 OFFSET 0.000000 0.000000 0.000000
 CHANNELS 6 Xposition Yposition Zposition Xrotation Yrotation Zrotation
 JOINT Bip001_Pelvis
 {
  OFFSET -0.041037 -0.005508 0.164154
  CHANNELS 3 Xrotation Yrotation Zrotation
  JOINT Bip001_Spine
  {
   OFFSET 0.044300 0.005946 0.077000
   CHANNELS 3 Xrotation Yrotation Zrotation
   JOINT Bip001_Spine1
   {
    OFFSET -0.000001 -0.000000 0.153780
    CHANNELS 3 Xrotation Yrotation Zrotation
    JOINT Bip001_Spine2
    {
     OFFSET 0.018201 0.002443 0.152706
     CHANNELS 3 Xrotation Yrotation Zrotation
     JOINT Bip001_Neck
     {
      OFFSET -0.043344 -0.005818 0.211513
      CHANNELS 3 Xrotation Yrotation Zrotation
      JOINT Bip001_Head
      {
       OFFSET -0.023929 -0.003212 0.056390
       CHANNELS 3 Xrotation Yrotation Zrotation
       End Site
       {
        OFFSET 0.000000 0.000000 0.000000
       }
      }
     }
     JOINT Bip001_L_Clavicle
     {
      OFFSET -0.029718 -0.053419 0.132514
      CHANNELS 3 Xrotation Yrotation Zrotation
      JOINT Bip001_L_UpperArm
      {
       OFFSET 0.024789 -0.162222 -0.026916
       CHANNELS 3 Xrotation Yrotation Zrotation
       JOINT Bip001_L_Forearm
       {
        OFFSET -0.026577 -0.286863 -0.153731
        CHANNELS 3 Xrotation Yrotation Zrotation
        JOINT Bip001_L_Hand
        {
         OFFSET -0.089077 -0.239781 -0.130038
         CHANNELS 3 Xrotation Yrotation Zrotation
         End Site
         {
          OFFSET 0.000000 0.000000 0.000000
         }
        }
       }
      }
     }
     JOINT Bip001_R_Clavicle
     {
      OFFSET -0.042752 0.043692 0.132514
      CHANNELS 3 Xrotation Yrotation Zrotation
      JOINT Bip001_R_UpperArm
      {
       OFFSET -0.018865 0.163017 -0.026916
       CHANNELS 3 Xrotation Yrotation Zrotation
       JOINT Bip001_R_Forearm
       {
        OFFSET -0.101279 0.269702 -0.153731
        CHANNELS 3 Xrotation Yrotation Zrotation
        JOINT Bip001_R_Hand
        {
         OFFSET -0.149152 0.207806 -0.130038
         CHANNELS 3 Xrotation Yrotation Zrotation
         End Site
         {
          OFFSET 0.000000 0.000000 0.000000
         }
        }
       }
      }
     }
    }
   }
  }
  JOINT Bip001_L_Thigh
  {
   OFFSET 0.011035 -0.082219 0.000000
   CHANNELS 3 Xrotation Yrotation Zrotation
   JOINT Bip001_L_Calf
   {
    OFFSET 0.010188 -0.013597 -0.536358
    CHANNELS 3 Xrotation Yrotation Zrotation
    JOINT Bip001_L_Foot
    {
     OFFSET 0.072725 0.000243 -0.475449
     CHANNELS 3 Xrotation Yrotation Zrotation
     End Site
     {
      OFFSET 0.000000 0.000000 0.000000
     }
    }
   }
  }
  JOINT Bip001_R_Thigh
  {
   OFFSET -0.011035 0.082219 0.000000
   CHANNELS 3 Xrotation Yrotation Zrotation
   JOINT Bip001_R_Calf
   {
    OFFSET 0.006242 0.015802 -0.536358
    CHANNELS 3 Xrotation Yrotation Zrotation
    JOINT Bip001_R_Foot
    {
     OFFSET 0.070215 0.018943 -0.475449
     CHANNELS 3 Xrotation Yrotation Zrotation
     End Site
     {
      OFFSET 0.000000 0.000000 0.000000
     }
    }
   }
  }
 }
}
MOTION
Frames: 18
Frame Time: 0.033333
-18.837141 0.847808 -7.604526 -95.086809 -13.154341 67.715688 19.037030 0.875238 0.002707 19.863026 -2.662630 1.793994 4.919708 -0.644931 1.692187 1.963036 -0.255481 1.666661 -18.840269 3.274451 0.614324 3.037844 -4.835178 -39.471996 0.114534 -7.648949 -0.348752 -67.600960 15.153163 30.784606 -13.586016 5.995451 -27.600472 15.146348 25.636446 0.886279 -0.202541 7.570063 2.857121 10.311928 -45.738140 17.745624 -21.579270 -14.840362 48.050396 12.917309 8.976310 3.733779 -43.348872 0.185924 -2.142494 27.486071 1.740418 0.355858 -12.087363 5.947351 -1.365155 -22.589800 -0.875432 -12.499744 33.442786 -2.127953 -0.359602 -10.941354 5.298227 9.450559
-18.920400 0.889944 -7.649854 -92.202224 -13.408849 69.894581 19.033580 0.971821 0.266398 19.898154 -1.788586 1.099169 4.863902 -0.385839 0.985882 1.973183 -0.153712 0.999737 -19.848555 1.106451 0.234135 2.536025 -5.637169 -45.531037 -0.007700 -8.617970 -1.456831 -66.574775 15.543680 29.755209 -15.049003 7.254823 -30.875102 22.355946 21.365329 -2.851414 -0.135256 6.784190 2.475007 8.476465 -47.121644 15.931939 -21.088794 -14.031125 46.537792 14.596779 9.469446 3.721927 -39.566158 2.020410 -1.646721 29.057296 1.845526 0.377367 -6.795431 5.793371 -3.262452 -25.896557 0.529765 -11.692315 27.583695 -1.752969 -0.373358 -1.691410 2.971061 6.866367
-18.998077 0.923787 -7.684756 -89.864116 -12.907258 70.104139 19.021353 0.937158 0.357513 19.427102 -0.793610 0.382098 4.824742 -0.169339 0.431095 1.950689 -0.041835 0.427242 -20.650588 -0.719061 -0.107807 2.161336 -5.812082 -47.954452 -0.179752 -9.310273 -2.460189 -63.862879 16.450705 27.678432 -16.412162 8.385965 -34.154794 28.829655 15.889777 -5.660489 -0.052726 6.345170 1.996204 7.801126 -48.495380 14.938422 -20.629021 -13.391398 45.456790 16.086972 9.737984 3.717780 -36.731495 3.480909 -1.037367 31.936987 2.036855 0.350214 -1.945966 5.852848 -3.975268 -29.031708 2.284859 -9.956980 21.679530 -1.357046 -0.332969 8.219896 -0.773569 4.970994
-19.076820 0.943685 -7.720823 -88.724820 -12.151168 67.536566 19.041720 0.873976 -0.241356 18.314852 -0.210957 0.013474 4.595970 -0.054159 0.191074 1.862389 0.020341 0.063946 -20.903420 -1.865523 -0.229898 1.915530 -5.239322 -45.155457 -0.184891 -9.283562 -2.532640 -58.081406 18.405555 23.417898 -17.516445 9.621822 -36.864088 33.104512 10.524319 -7.605550 -0.000310 6.541863 1.344571 9.217039 -49.553390 15.831929 -20.529689 -13.302197 45.246008 16.421086 9.746821 4.536608 -33.960962 3.357759 -0.658588 35.292042 2.168258 0.334290 1.693023 6.122492 -2.705732 -32.932442 5.273024 -8.345920 22.117113 -1.266598 -0.338029 9.420107 -6.669269 9.317104
-19.139187 0.940553 -7.762474 -89.760978 -12.484988 65.480782 19.118175 0.855281 0.377598 18.500388 -0.868609 -0.231906 4.588014 -0.193858 -0.233584 1.835361 -0.077096 -0.347177 -20.773985 -2.440425 -0.391243 2.973028 -3.879315 -38.364501 -0.250107 -8.728675 -2.922308 -52.305238 20.064840 17.998934 -18.152870 10.266745 -38.637498 37.149246 5.007154 -9.218111 0.017384 6.745902 1.225016 11.723273 -49.378216 17.706344 -20.928492 -13.859313 46.029690 16.102967 9.237288 4.833416 -29.714212 1.371318 -0.988081 39.916219 2.510340 0.281302 3.285005 5.001458 -1.057575 -31.683650 5.361081 -7.140114 23.394143 -1.370211 -0.357615 11.726193 -7.086893 11.315830
-19.191290 0.925213 -7.808850 -91.462784 -13.062773 64.927198 19.168104 1.018739 0.605119 18.480660 -1.920937 -0.559795 4.558415 -0.478484 -0.671122 1.827074 -0.166169 -0.709635 -20.426727 -2.963707 -0.489519 4.530080 -1.784186 -28.194486 -0.299252 -8.186100 -3.344726 -45.483725 21.685503 12.093439 -18.743439 10.774675 -39.698012 40.168487 -1.553178 -10.616783 0.031061 6.789205 1.112918 15.355628 -48.265167 20.852446 -21.105626 -14.624529 47.975709 15.956070 8.890215 4.829726 -25.032364 -1.523993 -1.683285 44.004266 2.750496 0.195515 4.149566 3.462725 0.391347 -30.104909 4.769003 -6.487532 28.170567 -1.781867 -0.346290 11.080621 -4.792756 11.817169
-19.240560 0.894027 -7.853039 -91.234176 -13.443532 66.497277 19.341673 0.963085 0.949999 17.303756 -2.344297 -1.353983 4.294976 -0.595924 -1.462378 1.705997 -0.198321 -1.532910 -19.086715 -3.490889 -0.572725 5.214805 -1.759602 -26.413775 -0.341975 -8.178590 -3.755544 -36.427216 23.054409 5.620643 -19.141127 11.372437 -41.097252 41.920878 -10.691654 -11.578505 0.088429 6.571260 0.568591 19.530388 -47.370515 24.118422 -21.698032 -15.288498 49.215711 16.263393 7.776172 4.976721 -20.302105 -4.094854 -2.503668 45.984991 2.833093 0.154759 3.755526 3.218320 0.359325 -28.889626 5.745774 -8.609486 32.047439 -2.020111 -0.315076 4.085547 -1.238817 11.607383
-19.291978 0.855714 -7.889188 -91.569623 -13.865191 67.958606 19.505358 0.982797 0.865578 16.088704 -2.591272 -2.176929 3.945059 -0.698507 -2.334002 1.594693 -0.226759 -2.337561 -17.438279 -3.535620 -0.581413 6.121898 -2.155338 -25.644030 -0.387374 -7.688429 -4.147264 -26.538685 23.563982 -1.266664 -19.026500 11.099339 -40.254460 41.525860 -19.802327 -13.063467 0.109615 6.136271 0.163792 22.688559 -46.479771 26.895657 -22.335890 -15.879874 49.940803 16.568238 7.112510 4.655876 -15.150643 -6.971259 -3.472126 46.464369 2.947648 0.143462 2.809040 3.628997 -0.733770 -29.495080 6.938664 -10.460645 35.643697 -2.230921 -0.327482 -2.069462 1.333288 11.343199
-19.344948 0.812548 -7.927186 -93.350209 -15.831275 68.406861 19.223517 1.137214 1.111333 16.701540 -3.489151 -2.748628 3.999765 -0.958678 -2.706725 1.617877 -0.314490 -2.707405 -16.083304 -1.825495 -0.318661 7.425336 -2.721607 -23.833228 -0.317953 -6.011091 -4.411703 -16.335218 21.905749 -10.281206 -16.622880 8.639497 -34.711689 34.570084 -26.760622 -16.033638 0.053133 5.801304 0.594306 24.865599 -45.720384 28.304050 -22.569946 -16.132536 50.342175 17.249861 6.691275 3.171317 -7.869590 -9.363801 -3.239506 46.804622 2.826745 0.174244 -0.022721 2.932338 -2.683922 -31.416419 7.580011 -10.889799 40.016921 -2.496030 -0.301170 -13.030002 0.505447 11.816069
-19.392904 0.775660 -7.973843 -95.130035 -17.914556 69.065818 19.341151 1.205837 0.946466 17.541334 -4.240336 -3.165915 4.227004 -1.105435 -3.233181 1.714439 -0.367923 -3.379513 -14.618908 -0.396532 -0.081377 9.050988 -2.817584 -21.469052 -0.224441 -3.795602 -4.905233 -8.265434 19.626908 -17.775958 -13.321363 5.739785 -26.343069 32.805484 -29.791348 -16.386184 0.040440 4.951350 0.834553 25.394086 -45.489393 28.896570 -22.286243 -15.894148 50.575659 17.230559 7.640788 2.279426 -1.749819 -10.217226 -3.793109 46.776356 2.891333 0.154215 -2.740583 2.172207 -4.317342 -36.780047 8.881100 -10.360355 46.617745 -2.869690 -0.177990 -12.113313 1.239721 11.011681
-19.450080 0.760640 -8.023212 -95.147855 -18.987491 70.577854 19.247953 1.115438 1.856719 18.074815 -4.037045 -3.858818 4.367071 -1.110250 -4.063779 1.761317 -0.354064 -4.223594 -13.326430 -0.393787 -0.095022 10.914903 -2.537339 -17.818623 -0.073539 -1.286620 -6.043756 -4.067476 18.965444 -22.458364 -9.466931 3.420069 -18.624182 46.935231 -24.636683 -9.015013 0.047880 3.267732 0.379389 24.218235 -46.242935 27.606206 -21.781134 -14.843834 48.778467 16.547910 10.576503 4.100841 -0.036266 -8.561149 -6.526330 45.996671 2.851894 0.172781 -5.073976 2.067303 -5.089974 -40.689673 10.454286 -8.578371 46.346134 -2.865133 -0.154994 -4.767102 1.203863 8.755471
-19.520339 0.754630 -8.075888 -95.071277 -20.261549 70.802701 19.174389 1.200513 2.111118 18.408964 -3.281280 -4.479133 4.546791 -0.925673 -4.607795 1.815996 -0.274134 -4.662184 -12.005466 -1.344944 -0.234254 12.688048 -1.641907 -12.565649 0.113447 0.566722 -7.072496 -1.574811 19.698862 -24.721198 -5.929357 1.805406 -11.589407 57.603945 -16.441321 -3.684225 0.033559 2.020588 -0.422863 23.207643 -47.897159 25.691043 -21.056534 -14.040344 47.175590 15.825354 12.915501 4.998938 -0.843159 -6.126656 -8.312071 46.339301 3.017030 0.187825 -7.510018 1.684795 -5.294002 -43.290745 11.321564 -3.999623 42.479471 -2.706670 -0.243532 -1.804988 -1.402768 6.069752
-19.596093 0.754931 -8.135663 -94.946183 -21.156271 69.440091 19.264007 1.014451 2.282106 18.964693 -1.661237 -4.605640 4.735853 -0.561325 -4.716161 1.890696 -0.091574 -4.627901 -11.001241 -3.313591 -0.649132 13.631585 -0.903253 -7.954986 0.115798 0.654564 -7.490633 -0.269396 22.144671 -23.393802 -4.072548 1.165983 -7.847365 56.526307 -9.685041 -1.290075 0.072550 2.161192 -1.504636 21.821429 -51.099978 22.269766 -21.326626 -14.303603 47.567308 15.476473 12.910297 1.864116 -5.022043 -3.633932 -4.970804 48.908703 3.067521 0.103718 -14.873796 0.439994 -5.321790 -44.428426 11.801807 0.370561 37.342744 -2.380774 -0.304797 -0.095823 -3.854897 3.754790
-19.678558 0.753697 -8.204531 -94.721360 -22.023213 68.288440 19.106305 0.858492 1.861546 19.630905 0.185132 -4.124992 4.887811 -0.072020 -4.220744 1.936514 0.083864 -4.106748 -10.402368 -5.019866 -0.924170 14.094115 -0.261589 -5.755715 0.090974 0.553377 -7.043599 -2.000846 26.578523 -17.439215 -3.800898 1.131143 -7.304717 48.664469 -5.869437 -1.326604 0.156082 2.631796 -2.318985 22.305981 -52.935224 19.135037 -21.894212 -15.459018 49.799292 13.479484 11.644380 1.082184 -9.623643 -1.506375 -0.614312 51.842481 3.220971 0.035766 -21.368153 -1.356496 -5.020476 -43.944805 12.495592 1.072728 35.203944 -2.252476 -0.314409 -3.098151 -4.325285 3.437179
-19.757208 0.754491 -8.275001 -96.506530 -22.557270 66.018048 19.288027 0.908097 1.536508 20.026110 0.787907 -3.124369 4.930047 0.123830 -3.099687 1.990803 0.117291 -2.932476 -10.110741 -5.117195 -0.953157 13.607206 -0.054839 -5.033820 0.134883 0.899039 -6.579146 -7.905023 31.391322 -6.663245 -4.609974 1.313780 -9.007731 40.001190 -5.569626 -3.134784 0.180996 3.119612 -2.506113 23.244790 -52.405143 17.189244 -22.696638 -16.687406 52.317265 11.047739 9.282214 0.513677 -13.854234 -0.250304 1.686379 52.974658 3.294847 0.008004 -26.286117 -3.512706 -3.427254 -42.394602 13.287543 0.432254 33.779381 -2.198242 -0.319457 -6.875209 -4.281437 3.678546
-19.828049 0.768017 -8.343053 -96.559753 -22.568292 65.672271 19.429528 0.899551 1.607438 20.289668 1.270496 -2.413528 5.057144 0.233494 -2.171471 2.028562 0.167668 -2.188034 -10.339271 -4.088934 -0.699915 13.466386 -0.495737 -5.502476 0.147467 1.573826 -5.375374 -17.452249 33.832303 5.878165 -4.962669 1.598364 -9.707824 31.496424 -11.082989 -3.419780 0.216547 4.054721 -2.061499 24.499911 -51.619335 17.221110 -22.776385 -16.693603 51.886672 11.079617 8.578370 0.803943 -18.161939 1.840014 3.236865 51.894207 3.169664 0.037494 -23.625082 -5.505848 -1.739377 -40.649578 13.885520 -0.783741 32.798198 -2.111416 -0.321429 -9.968342 -4.129314 4.002146
-19.899023 0.790418 -8.403345 -96.592551 -22.283065 64.093785 19.478829 0.812375 1.262293 20.434766 1.673110 -1.688958 5.111266 0.371815 -1.542677 2.020507 0.210623 -1.403201 -11.029543 -2.780009 -0.504349 13.329399 -1.144282 -6.385860 0.147124 2.311745 -4.194654 -28.192643 34.156982 18.584220 -5.042140 1.610178 -10.027576 23.102960 -16.181174 -3.795723 0.232342 4.944275 -1.405912 26.394633 -50.903671 19.091243 -22.245817 -16.116959 50.893852 11.898450 8.665111 1.171968 -20.367111 4.700227 3.219517 45.177635 2.775049 0.203613 -20.167512 -6.966909 1.000377 -38.512799 13.840506 -3.532525 34.372379 -2.242777 -0.313538 -5.083090 -2.803277 4.229452
-19.971915 0.825021 -8.456499 -95.650761 -20.367252 63.901079 19.321760 0.905410 0.938514 19.954927 1.924211 -0.915616 4.995593 0.480379 -0.815760 1.987267 0.262946 -0.725437 -12.332509 -1.502514 -0.286432 12.426584 -1.609339 -8.450395 0.149231 2.824760 -3.955286 -42.234067 31.951610 30.888485 -4.693402 1.509418 -9.035128 15.667556 -13.349525 -3.138979 0.180874 5.320370 -0.756808 27.120524 -50.464230 20.422406 -21.639817 -15.006432 48.401255 11.527316 9.420067 1.196488 -24.002426 5.919481 2.628158 36.521663 2.174780 0.339333 -9.133862 -5.811911 2.550352 -37.360287 13.271250 -5.982507 35.886919 -2.289570 -0.304320 -1.895441 -3.688013 3.598376
